<?xml version="1.0" encoding="UTF-8" standalone="no"?>
<svg xmlns="http://www.w3.org/2000/svg" viewBox="0 0 900 600">
  <!-- Background -->
  <rect width="900" height="600" fill="#f8f9fa"/>
  
  <!-- Title -->
  <text x="450" y="40" font-family="Arial" font-size="24" font-weight="bold" text-anchor="middle" fill="#212121">Sentinel Registry Architecture</text>
  
  <!-- Users & Clients -->
  <rect x="50" y="80" width="800" height="90" rx="5" fill="#e3f2fd" stroke="#1565c0" stroke-width="2"/>
  <text x="450" y="110" font-family="Arial" font-size="16" font-weight="bold" text-anchor="middle" fill="#1565c0">Users & Clients</text>
  
  <rect x="80" y="120" width="100" height="35" rx="5" fill="#bbdefb" stroke="#1565c0" stroke-width="1"/>
  <text x="130" y="142" font-family="Arial" font-size="12" text-anchor="middle" fill="#1565c0">Sentinel CLI</text>
  
  <rect x="210" y="120" width="100" height="35" rx="5" fill="#bbdefb" stroke="#1565c0" stroke-width="1"/>
  <text x="260" y="142" font-family="Arial" font-size="12" text-anchor="middle" fill="#1565c0">Desktop App</text>
  
  <rect x="340" y="120" width="100" height="35" rx="5" fill="#bbdefb" stroke="#1565c0" stroke-width="1"/>
  <text x="390" y="142" font-family="Arial" font-size="12" text-anchor="middle" fill="#1565c0">Web UI</text>
  
  <rect x="470" y="120" width="100" height="35" rx="5" fill="#bbdefb" stroke="#1565c0" stroke-width="1"/>
  <text x="520" y="142" font-family="Arial" font-size="12" text-anchor="middle" fill="#1565c0">SDK Clients</text>
  
  <rect x="600" y="120" width="100" height="35" rx="5" fill="#bbdefb" stroke="#1565c0" stroke-width="1"/>
  <text x="650" y="142" font-family="Arial" font-size="12" text-anchor="middle" fill="#1565c0">CI/CD Systems</text>
  
  <rect x="730" y="120" width="100" height="35" rx="5" fill="#bbdefb" stroke="#1565c0" stroke-width="1"/>
  <text x="780" y="142" font-family="Arial" font-size="12" text-anchor="middle" fill="#1565c0">3rd Party Tools</text>
  
  <!-- API Gateway -->
  <rect x="50" y="190" width="800" height="60" rx="5" fill="#e8f5e9" stroke="#2e7d32" stroke-width="2"/>
  <text x="450" y="225" font-family="Arial" font-size="16" font-weight="bold" text-anchor="middle" fill="#2e7d32">API Gateway</text>
  
  <!-- Core Services -->
  <rect x="50" y="270" width="800" height="150" rx="5" fill="#fff3e0" stroke="#e65100" stroke-width="2"/>
  <text x="450" y="295" font-family="Arial" font-size="16" font-weight="bold" text-anchor="middle" fill="#e65100">Registry Core Services</text>
  
  <rect x="80" y="315" width="120" height="40" rx="5" fill="#ffe0b2" stroke="#e65100" stroke-width="1"/>
  <text x="140" y="340" font-family="Arial" font-size="14" text-anchor="middle" fill="#e65100">Auth Service</text>
  
  <rect x="230" y="315" width="120" height="40" rx="5" fill="#ffe0b2" stroke="#e65100" stroke-width="1"/>
  <text x="290" y="340" font-family="Arial" font-size="14" text-anchor="middle" fill="#e65100">Image Service</text>
  
  <rect x="380" y="315" width="120" height="40" rx="5" fill="#ffe0b2" stroke="#e65100" stroke-width="1"/>
  <text x="440" y="340" font-family="Arial" font-size="14" text-anchor="middle" fill="#e65100">Metadata Service</text>
  
  <rect x="530" y="315" width="120" height="40" rx="5" fill="#ffe0b2" stroke="#e65100" stroke-width="1"/>
  <text x="590" y="340" font-family="Arial" font-size="14" text-anchor="middle" fill="#e65100">Search Service</text>
  
  <rect x="680" y="315" width="120" height="40" rx="5" fill="#ffe0b2" stroke="#e65100" stroke-width="1"/>
  <text x="740" y="340" font-family="Arial" font-size="14" text-anchor="middle" fill="#e65100">Metrics Service</text>
  
  <rect x="80" y="370" width="120" height="40" rx="5" fill="#ffe0b2" stroke="#e65100" stroke-width="1"/>
  <text x="140" y="395" font-family="Arial" font-size="14" text-anchor="middle" fill="#e65100">Tag Service</text>
  
  <rect x="230" y="370" width="120" height="40" rx="5" fill="#ffe0b2" stroke="#e65100" stroke-width="1"/>
  <text x="290" y="395" font-family="Arial" font-size="14" text-anchor="middle" fill="#e65100">Version Control</text>
  
  <rect x="380" y="370" width="120" height="40" rx="5" fill="#ffe0b2" stroke="#e65100" stroke-width="1"/>
  <text x="440" y="395" font-family="Arial" font-size="14" text-anchor="middle" fill="#e65100">Webhook Service</text>
  
  <rect x="530" y="370" width="120" height="40" rx="5" fill="#ffe0b2" stroke="#e65100" stroke-width="1"/>
  <text x="590" y="395" font-family="Arial" font-size="14" text-anchor="middle" fill="#e65100">Access Control</text>
  
  <rect x="680" y="370" width="120" height="40" rx="5" fill="#ffe0b2" stroke="#e65100" stroke-width="1"/>
  <text x="740" y="395" font-family="Arial" font-size="14" text-anchor="middle" fill="#e65100">Replication</text>
  
  <!-- Storage -->
  <rect x="50" y="440" width="800" height="90" rx="5" fill="#e1f5fe" stroke="#0277bd" stroke-width="2"/>
  <text x="450" y="465" font-family="Arial" font-size="16" font-weight="bold" text-anchor="middle" fill="#0277bd">Storage Layer</text>
  
  <rect x="80" y="480" width="180" height="35" rx="5" fill="#b3e5fc" stroke="#0277bd" stroke-width="1"/>
  <text x="170" y="502" font-family="Arial" font-size="14" text-anchor="middle" fill="#0277bd">Object Storage</text>
  
  <rect x="290" y="480" width="180" height="35" rx="5" fill="#b3e5fc" stroke="#0277bd" stroke-width="1"/>
  <text x="380" y="502" font-family="Arial" font-size="14" text-anchor="middle" fill="#0277bd">Metadata Database</text>
  
  <rect x="500" y="480" width="180" height="35" rx="5" fill="#b3e5fc" stroke="#0277bd" stroke-width="1"/>
  <text x="590" y="502" font-family="Arial" font-size="14" text-anchor="middle" fill="#0277bd">Search Index</text>
  
  <rect x="710" y="480" width="110" height="35" rx="5" fill="#b3e5fc" stroke="#0277bd" stroke-width="1"/>
  <text x="765" y="502" font-family="Arial" font-size="14" text-anchor="middle" fill="#0277bd">Cache</text>
  
  <!-- Infrastructure -->
  <rect x="50" y="550" width="800" height="30" rx="5" fill="#f3e5f5" stroke="#7b1fa2" stroke-width="2"/>
  <text x="450" y="570" font-family="Arial" font-size="16" font-weight="bold" text-anchor="middle" fill="#7b1fa2">Infrastructure (Kubernetes, Cloud Services)</text>
  
  <!-- Connections -->
  <!-- Clients to API Gateway -->
  <path d="M 130 155 L 130 190" stroke="#616161" stroke-width="1.5" stroke-dasharray="5,3" fill="none"/>
  <path d="M 260 155 L 260 190" stroke="#616161" stroke-width="1.5" stroke-dasharray="5,3" fill="none"/>
  <path d="M 390 155 L 390 190" stroke="#616161" stroke-width="1.5" stroke-dasharray="5,3" fill="none"/>
  <path d="M 520 155 L 520 190" stroke="#616161" stroke-width="1.5" stroke-dasharray="5,3" fill="none"/>
  <path d="M 650 155 L 650 190" stroke="#616161" stroke-width="1.5" stroke-dasharray="5,3" fill="none"/>
  <path d="M 780 155 L 780 190" stroke="#616161" stroke-width="1.5" stroke-dasharray="5,3" fill="none"/>
  
  <!-- API Gateway to Services -->
  <path d="M 450 250 L 450 270" stroke="#616161" stroke-width="1.5" fill="none"/>
  
  <!-- Services to Storage -->
  <path d="M 140 410 L 140 480" stroke="#616161" stroke-width="1.5" stroke-dasharray="5,3" fill="none"/>
  <path d="M 290 410 L 290 480" stroke="#616161" stroke-width="1.5" stroke-dasharray="5,3" fill="none"/>
  <path d="M 440 410 L 440 480" stroke="#616161" stroke-width="1.5" stroke-dasharray="5,3" fill="none"/>
  <path d="M 590 410 L 590 480" stroke="#616161" stroke-width="1.5" stroke-dasharray="5,3" fill="none"/>
  <path d="M 740 410 L 740 480" stroke="#616161" stroke-width="1.5" stroke-dasharray="5,3" fill="none"/>
  
  <!-- Storage to Infrastructure -->
  <path d="M 170 515 L 170 550" stroke="#616161" stroke-width="1.5" stroke-dasharray="5,3" fill="none"/>
  <path d="M 380 515 L 380 550" stroke="#616161" stroke-width="1.5" stroke-dasharray="5,3" fill="none"/>
  <path d="M 590 515 L 590 550" stroke="#616161" stroke-width="1.5" stroke-dasharray="5,3" fill="none"/>
  <path d="M 765 515 L 765 550" stroke="#616161" stroke-width="1.5" stroke-dasharray="5,3" fill="none"/>
  
  <!-- Data Flow Arrows -->
  <polygon points="450,265 445,255 455,255" fill="#616161"/>
  
  <!-- Storage Layer Legend -->
  <rect x="80" y="510" width="10" height="10" fill="#ffcc80" stroke="#e65100" stroke-width="1"/>
  <text x="100" y="520" font-family="Arial" font-size="10" fill="#616161">Agent Images</text>
  
  <rect x="200" y="510" width="10" height="10" fill="#80cbc4" stroke="#00796b" stroke-width="1"/>
  <text x="220" y="520" font-family="Arial" font-size="10" fill="#616161">Configuration</text>
  
  <rect x="290" y="510" width="10" height="10" fill="#ef9a9a" stroke="#c62828" stroke-width="1"/>
  <text x="310" y="520" font-family="Arial" font-size="10" fill="#616161">User Data</text>
  
  <rect x="380" y="510" width="10" height="10" fill="#a5d6a7" stroke="#2e7d32" stroke-width="1"/>
  <text x="400" y="520" font-family="Arial" font-size="10" fill="#616161">Agent Metadata</text>
  
  <rect x="500" y="510" width="10" height="10" fill="#90caf9" stroke="#1565c0" stroke-width="1"/>
  <text x="520" y="520" font-family="Arial" font-size="10" fill="#616161">Tags & Categories</text>
  
  <rect x="620" y="510" width="10" height="10" fill="#ce93d8" stroke="#7b1fa2" stroke-width="1"/>
  <text x="640" y="520" font-family="Arial" font-size="10" fill="#616161">Search Indices</text>
</svg>